#
# OBJECT NAME
#
o model_005
mtllib 005.mtl

#
# VERTEX BUFFER 000
#
v 132.712 -33.1492 55.7465
v 134.675 -34.3214 56.7259
v 131.969 -32.6874 57.7881
v 133.932 -33.8596 58.7675
v 134.675 -34.3214 56.7259
v 132.712 -33.1492 55.7465
v 132.298 -38.2768 56.7554
v 130.335 -37.1047 55.7759
v 134.675 -34.3214 56.7259
v 132.298 -38.2768 56.7554
v 133.932 -33.8596 58.7675
v 131.555 -37.815 58.797
v 129.592 -36.6429 57.8175
v 131.555 -37.815 58.797
v 130.335 -37.1047 55.7759
v 132.298 -38.2768 56.7554
v 131.555 -37.815 58.797
v 129.592 -36.6429 57.8175
v 133.932 -33.8596 58.7675
v 131.969 -32.6874 57.7881
v 128.824 -36.2569 57.6726
v 131.267 -32.1918 57.6424
v 129.704 -36.8035 55.2559
v 132.147 -32.7384 55.2257
v 115.438 -22.855 49.7238
v 116.29 -23.3844 47.3835
v 113.099 -26.7467 49.7528
v 113.951 -27.2761 47.4125
v 121.313 -26.2671 49.8185
v 132.147 -32.7384 55.2257
v 120.433 -25.7204 52.2352
v 131.267 -32.1918 57.6424
v 117.99 -29.7855 52.2655
v 128.824 -36.2569 57.6726
v 118.869 -30.3322 49.8488
v 129.704 -36.8035 55.2559
v 113.099 -26.7467 49.7528
v 113.951 -27.2761 47.4125
v 106.966 -23.0837 46.6922
v 107.818 -23.6131 44.3519
v 115.438 -22.855 49.7238
v 113.099 -26.7467 49.7528
v 109.305 -19.192 46.6632
v 106.966 -23.0837 46.6922
v 109.305 -19.192 46.6632
v 106.966 -23.0837 46.6922
v 110.157 -19.7213 44.3229
v 107.818 -23.6131 44.3519
v 116.29 -23.3844 47.3835
v 115.438 -22.855 49.7238
v 110.157 -19.7213 44.3229
v 109.305 -19.192 46.6632
v 113.951 -27.2761 47.4125
v 116.29 -23.3844 47.3835
v 107.818 -23.6131 44.3519
v 110.157 -19.7213 44.3229
v 129.592 -36.6429 57.8175
v 130.335 -37.1047 55.7759
v 131.969 -32.6874 57.7881
v 132.712 -33.1492 55.7465
v 121.313 -26.2671 49.8185
v 118.869 -30.3322 49.8488
v 132.147 -32.7384 55.2257
v 129.704 -36.8035 55.2559
v 131.267 -32.1918 57.6424
v 128.824 -36.2569 57.6726
v 120.433 -25.7204 52.2352
v 117.99 -29.7855 52.2655
v 120.433 -25.7204 52.2352
v 117.99 -29.7855 52.2655
v 121.313 -26.2671 49.8185
v 118.869 -30.3322 49.8488
v 129.719 -36.438 57.9279
v 130.53 -36.9421 55.6995
v 128.978 -35.9954 57.558
v 129.789 -36.4995 55.3297
v 131.859 -32.8769 57.9014
v 129.719 -36.438 57.9279
v 131.118 -32.4343 57.5315
v 128.978 -35.9954 57.558
v 132.67 -33.381 55.673
v 131.859 -32.8769 57.9014
v 131.929 -32.9384 55.3032
v 131.118 -32.4343 57.5315
v 130.53 -36.9421 55.6995
v 132.67 -33.381 55.673
v 129.789 -36.4995 55.3297
v 131.929 -32.9384 55.3032
v 132.126 -34.2958 58.2253
v 131.099 -36.0043 58.238
v 131.859 -32.8769 57.9014
v 129.719 -36.438 57.9279
v 131.852 -36.4724 56.1686
v 132.879 -34.7639 56.1559
v 130.53 -36.9421 55.6995
v 132.67 -33.381 55.673
v 131.099 -36.0043 58.238
v 132.126 -34.2958 58.2253
v 131.852 -36.4724 56.1686
v 132.879 -34.7639 56.1559
v 132.67 -33.381 55.673
v 132.879 -34.7639 56.1559
v 131.859 -32.8769 57.9014
v 132.126 -34.2958 58.2253
v 131.852 -36.4724 56.1686
v 130.53 -36.9421 55.6995
v 131.099 -36.0043 58.238
v 129.719 -36.438 57.9279
v 115.273 -22.9421 49.5164
v 116.022 -23.4077 47.4582
v 120.519 -26.0757 52.1347
v 121.268 -26.5412 50.0765
v 120.519 -26.0757 52.1347
v 118.343 -29.6958 52.1616
v 115.273 -22.9421 49.5164
v 113.097 -26.5622 49.5433
v 113.846 -27.0277 47.4852
v 113.097 -26.5622 49.5433
v 119.092 -30.1613 50.1034
v 118.343 -29.6958 52.1616
v 119.092 -30.1613 50.1034
v 121.268 -26.5412 50.0765
v 113.846 -27.0277 47.4852
v 116.022 -23.4077 47.4582

vn 0.51513 0.857088 -0.00637965
vn 0.51513 0.857088 -0.00637965
vn 0.51513 0.857088 -0.00637965
vn 0.51513 0.857088 -0.00637965
vn 0.334546 -0.207912 -0.919158
vn 0.334546 -0.207912 -0.919158
vn 0.334546 -0.207912 -0.919158
vn 0.334546 -0.207912 -0.919158
vn 0.789126 -0.471352 0.393837
vn 0.789126 -0.471352 0.393837
vn 0.789126 -0.471352 0.393837
vn 0.789126 -0.471352 0.393837
vn -0.51513 -0.857088 0.00637965
vn -0.51513 -0.857088 0.00637965
vn -0.51513 -0.857088 0.00637965
vn -0.51513 -0.857088 0.00637965
vn -0.334546 0.207912 0.919158
vn -0.334546 0.207912 0.919158
vn -0.334546 0.207912 0.919158
vn -0.334546 0.207912 0.919158
vn 0.789126 -0.471352 0.393837
vn 0.789126 -0.471352 0.393837
vn 0.789126 -0.471352 0.393837
vn 0.789126 -0.471352 0.393837
vn 0.789126 -0.471352 0.393837
vn 0.789126 -0.471352 0.393837
vn 0.789126 -0.471352 0.393837
vn 0.789126 -0.471352 0.393837
vn 0.51513 0.857088 -0.00637965
vn 0.51513 0.857088 -0.00637965
vn 0.51513 0.857088 -0.00637965
vn 0.51513 0.857088 -0.00637965
vn -0.51513 -0.857088 0.00637965
vn -0.51513 -0.857088 0.00637965
vn -0.51513 -0.857088 0.00637965
vn -0.51513 -0.857088 0.00637965
vn -0.51513 -0.857088 0.00637965
vn -0.51513 -0.857088 0.00637965
vn -0.51513 -0.857088 0.00637965
vn -0.51513 -0.857088 0.00637965
vn -0.334546 0.207912 0.919158
vn -0.334546 0.207912 0.919158
vn -0.334546 0.207912 0.919158
vn -0.334546 0.207912 0.919158
vn -0.789126 0.471352 -0.393837
vn -0.789126 0.471352 -0.393837
vn -0.789126 0.471352 -0.393837
vn -0.789126 0.471352 -0.393837
vn 0.51513 0.857088 -0.00637965
vn 0.51513 0.857088 -0.00637965
vn 0.51513 0.857088 -0.00637965
vn 0.51513 0.857088 -0.00637965
vn 0.334546 -0.207912 -0.919158
vn 0.334546 -0.207912 -0.919158
vn 0.334546 -0.207912 -0.919158
vn 0.334546 -0.207912 -0.919158
vn -0.789126 0.471352 -0.393837
vn -0.789126 0.471352 -0.393837
vn -0.789126 0.471352 -0.393837
vn -0.789126 0.471352 -0.393837
vn 0.334546 -0.207912 -0.919158
vn 0.334546 -0.207912 -0.919158
vn 0.334546 -0.207912 -0.919158
vn 0.334546 -0.207912 -0.919158
vn -0.334546 0.207912 0.919158
vn -0.334546 0.207912 0.919158
vn -0.334546 0.207912 0.919158
vn -0.334546 0.207912 0.919158
vn -0.789126 0.471352 -0.393837
vn -0.789126 0.471352 -0.393837
vn -0.789126 0.471352 -0.393837
vn -0.789126 0.471352 -0.393837
vn -0.51513 -0.857088 0.00637965
vn -0.51513 -0.857088 0.00637965
vn -0.51513 -0.857088 0.00637965
vn -0.51513 -0.857088 0.00637965
vn -0.334546 0.207912 0.919158
vn -0.334546 0.207912 0.919158
vn -0.334546 0.207912 0.919158
vn -0.334546 0.207912 0.919158
vn 0.51513 0.857088 -0.00637965
vn 0.51513 0.857088 -0.00637965
vn 0.51513 0.857088 -0.00637965
vn 0.51513 0.857088 -0.00637965
vn 0.334546 -0.207912 -0.919158
vn 0.334546 -0.207912 -0.919158
vn 0.334546 -0.207912 -0.919158
vn 0.334546 -0.207912 -0.919158
vn -0.265804 0.166822 0.949484
vn -0.265804 0.166822 0.949484
vn -0.265804 0.166822 0.949484
vn -0.265804 0.166822 0.949484
vn 0.400835 -0.247477 -0.882092
vn 0.400835 -0.247477 -0.882092
vn 0.400835 -0.247477 -0.882092
vn 0.400835 -0.247477 -0.882092
vn 0.545603 -0.75253 0.368804
vn 0.922968 -0.124659 0.36413
vn 0.545603 -0.75253 0.368804
vn 0.922968 -0.124659 0.36413
vn 0.928524 0.23936 0.283813
vn 0.922968 -0.124659 0.36413
vn 0.928524 0.23936 0.283813
vn 0.922968 -0.124659 0.36413
vn 0.545603 -0.75253 0.368804
vn 0.226245 -0.929113 0.29251
vn 0.545603 -0.75253 0.368804
vn 0.226245 -0.929113 0.29251
vn 0.51513 0.857088 -0.00637965
vn 0.51513 0.857088 -0.00637965
vn 0.51513 0.857088 -0.00637965
vn 0.51513 0.857088 -0.00637965
vn -0.334546 0.207912 0.919158
vn -0.334546 0.207912 0.919158
vn -0.334546 0.207912 0.919158
vn -0.334546 0.207912 0.919158
vn -0.51513 -0.857088 0.00637965
vn -0.51513 -0.857088 0.00637965
vn -0.51513 -0.857088 0.00637965
vn -0.51513 -0.857088 0.00637965
vn 0.334546 -0.207912 -0.919158
vn 0.334546 -0.207912 -0.919158
vn 0.334546 -0.207912 -0.919158
vn 0.334546 -0.207912 -0.919158

vt 0.871444 0.99239
vt 0.784927 0.99239
vt 0.871444 0.878239
vt 0.784927 0.878239
vt 0.784927 0.444948
vt 0.871444 0.444948
vt 0.784927 0.606464
vt 0.871444 0.606464
vt 0.583095 0.380028
vt 0.761777 0.380028
vt 0.583095 0.496106
vt 0.761777 0.496106
vt 0.871444 0.716723
vt 0.784927 0.716723
vt 0.871444 0.606464
vt 0.784927 0.606464
vt 0.784927 0.716723
vt 0.871444 0.716723
vt 0.784927 0.878239
vt 0.871444 0.878239
vt 0.582718 0.897697
vt 0.758936 0.897697
vt 0.582718 0.788749
vt 0.758936 0.788749
vt 0.574628 0.649226
vt 0.574628 0.538113
vt 0.769494 0.649226
vt 0.769494 0.538113
vt 0.0104379 0.492119
vt 0.0104379 0.00868875
vt 0.126931 0.492119
vt 0.126931 0.00868875
vt 0.282463 0.492119
vt 0.282463 0.00868875
vt 0.383402 0.492119
vt 0.383402 0.00868875
vt 0.288352 0.723292
vt 0.391555 0.723292
vt 0.288352 0.991444
vt 0.391555 0.991444
vt 0.123973 0.723292
vt 0.288352 0.723292
vt 0.123973 0.991444
vt 0.288352 0.991444
vt 0.766016 0.77365
vt 0.576138 0.77365
vt 0.766016 0.665294
vt 0.576138 0.665294
vt 0.0188352 0.723292
vt 0.123973 0.723292
vt 0.0188352 0.991444
vt 0.123973 0.991444
vt 0.391555 0.723292
vt 0.549549 0.723292
vt 0.391555 0.991444
vt 0.549549 0.991444
vt 0.576347 0.369778
vt 0.576347 0.255236
vt 0.796353 0.369778
vt 0.796353 0.255236
vt 0.560195 0.490656
vt 0.386783 0.490656
vt 0.560195 0.0124253
vt 0.386783 0.0124253
vt 0.126931 0.00868875
vt 0.282463 0.00868875
vt 0.126931 0.492119
vt 0.282463 0.492119
vt 0.82864 0.431779
vt 0.982144 0.431779
vt 0.82864 0.316455
vt 0.982144 0.316455
vt 0.952709 0.721904
vt 0.952709 0.635261
vt 0.990739 0.721904
vt 0.990739 0.635261
vt 0.952709 0.904186
vt 0.952709 0.721904
vt 0.990739 0.904186
vt 0.990739 0.721904
vt 0.952709 0.987927
vt 0.952709 0.904186
vt 0.990739 0.987927
vt 0.990739 0.904186
vt 0.952709 0.635261
vt 0.952709 0.452978
vt 0.990739 0.635261
vt 0.990739 0.452978
vt 0.890784 0.853836
vt 0.890784 0.772253
vt 0.946328 0.906132
vt 0.946328 0.719957
vt 0.893667 0.587818
vt 0.893667 0.503107
vt 0.946328 0.63855
vt 0.946328 0.452375
vt 0.796774 0.21706
vt 0.796774 0.00627738
vt 0.905943 0.21706
vt 0.905943 0.00627738
vt 0.597875 0.213591
vt 0.70611 0.198879
vt 0.597875 0.00918072
vt 0.70611 0.0238935
vt 0.70611 0.198879
vt 0.597875 0.213591
vt 0.70611 0.0238935
vt 0.597875 0.00918072
vt 0.0935939 0.711977
vt 0.0114071 0.711977
vt 0.0935939 0.503868
vt 0.0114071 0.503868
vt 0.0935939 0.503868
vt 0.288847 0.503868
vt 0.0935939 0.711977
vt 0.288847 0.711977
vt 0.372028 0.711977
vt 0.288847 0.711977
vt 0.372028 0.503868
vt 0.288847 0.503868
vt 0.372028 0.503868
vt 0.549611 0.503868
vt 0.372028 0.711977
vt 0.549611 0.711977


#
# VERTEX BUFFER 001
#
v 133.75 -33.8125 59.0313
v 131.875 -37.9688 57.9063
v 134.625 -34.3438 56.6875
v 107.313 -23.4219 45.6563
v 110.063 -19.6875 44.5938
v 109.313 -19.2188 46.625


#
# MESH 000
#
g surface_000
usemtl surface_000
f 1/1/1 3/3/3 2/2/2
f 2/2/2 3/3/3 4/4/4
f 4/4/4 4/4/4 5/5/5
f 5/5/5 5/5/5 6/6/6
f 5/5/5 7/7/7 6/6/6
f 6/6/6 7/7/7 8/8/8
f 8/8/8 8/8/8 9/9/9
f 9/9/9 9/9/9 10/10/10
f 9/9/9 11/11/11 10/10/10
f 10/10/10 11/11/11 12/12/12
f 12/12/12 12/12/12 13/13/13
f 13/13/13 13/13/13 14/14/14
f 13/13/13 15/15/15 14/14/14
f 14/14/14 15/15/15 16/16/16
f 16/16/16 16/16/16 17/17/17
f 17/17/17 17/17/17 18/18/18
f 17/17/17 19/19/19 18/18/18
f 18/18/18 19/19/19 20/20/20
f 20/20/20 20/20/20 21/21/21
f 21/21/21 21/21/21 22/22/22
f 21/21/21 23/23/23 22/22/22
f 22/22/22 23/23/23 24/24/24
f 24/24/24 24/24/24 25/25/25
f 25/25/25 25/25/25 26/26/26
f 25/25/25 27/27/27 26/26/26
f 26/26/26 27/27/27 28/28/28
f 28/28/28 28/28/28 29/29/29
f 29/29/29 29/29/29 30/30/30
f 29/29/29 31/31/31 30/30/30
f 30/30/30 31/31/31 32/32/32
f 32/32/32 32/32/32 33/33/33
f 33/33/33 33/33/33 34/34/34
f 33/33/33 35/35/35 34/34/34
f 34/34/34 35/35/35 36/36/36
f 36/36/36 36/36/36 37/37/37
f 37/37/37 37/37/37 38/38/38
f 37/37/37 39/39/39 38/38/38
f 38/38/38 39/39/39 40/40/40
f 40/40/40 40/40/40 41/41/41
f 41/41/41 41/41/41 42/42/42
f 41/41/41 43/43/43 42/42/42
f 42/42/42 43/43/43 44/44/44
f 44/44/44 44/44/44 45/45/45
f 45/45/45 45/45/45 46/46/46
f 45/45/45 47/47/47 46/46/46
f 46/46/46 47/47/47 48/48/48
f 48/48/48 48/48/48 49/49/49
f 49/49/49 49/49/49 50/50/50
f 49/49/49 51/51/51 50/50/50
f 50/50/50 51/51/51 52/52/52
f 52/52/52 52/52/52 53/53/53
f 53/53/53 53/53/53 54/54/54
f 53/53/53 55/55/55 54/54/54
f 54/54/54 55/55/55 56/56/56
f 56/56/56 56/56/56 57/57/57
f 57/57/57 57/57/57 58/58/58
f 57/57/57 59/59/59 58/58/58
f 58/58/58 59/59/59 60/60/60
f 60/60/60 60/60/60 61/61/61
f 61/61/61 61/61/61 62/62/62
f 61/61/61 63/63/63 62/62/62
f 62/62/62 63/63/63 64/64/64
f 64/64/64 64/64/64 65/65/65
f 65/65/65 65/65/65 66/66/66
f 65/65/65 67/67/67 66/66/66
f 66/66/66 67/67/67 68/68/68
f 68/68/68 68/68/68 69/69/69
f 69/69/69 69/69/69 70/70/70
f 69/69/69 71/71/71 70/70/70
f 70/70/70 71/71/71 72/72/72
f 72/72/72 72/72/72 73/73/73
f 73/73/73 73/73/73 74/74/74
f 73/73/73 75/75/75 74/74/74
f 74/74/74 75/75/75 76/76/76
f 76/76/76 76/76/76 77/77/77
f 77/77/77 77/77/77 78/78/78
f 77/77/77 79/79/79 78/78/78
f 78/78/78 79/79/79 80/80/80
f 80/80/80 80/80/80 81/81/81
f 81/81/81 81/81/81 82/82/82
f 81/81/81 83/83/83 82/82/82
f 82/82/82 83/83/83 84/84/84
f 84/84/84 84/84/84 85/85/85
f 85/85/85 85/85/85 86/86/86
f 85/85/85 87/87/87 86/86/86
f 86/86/86 87/87/87 88/88/88
f 88/88/88 88/88/88 89/89/89
f 89/89/89 89/89/89 90/90/90
f 89/89/89 91/91/91 90/90/90
f 90/90/90 91/91/91 92/92/92
f 92/92/92 92/92/92 93/93/93
f 93/93/93 93/93/93 94/94/94
f 93/93/93 95/95/95 94/94/94
f 94/94/94 95/95/95 96/96/96
f 96/96/96 96/96/96 97/97/97
f 97/97/97 97/97/97 98/98/98
f 97/97/97 99/99/99 98/98/98
f 98/98/98 99/99/99 100/100/100
f 100/100/100 100/100/100 101/101/101
f 101/101/101 101/101/101 102/102/102
f 101/101/101 103/103/103 102/102/102
f 102/102/102 103/103/103 104/104/104
f 104/104/104 104/104/104 105/105/105
f 105/105/105 105/105/105 106/106/106
f 105/105/105 107/107/107 106/106/106
f 106/106/106 107/107/107 108/108/108
f 108/108/108 108/108/108 109/109/109
f 109/109/109 109/109/109 110/110/110
f 109/109/109 111/111/111 110/110/110
f 110/110/110 111/111/111 112/112/112
f 112/112/112 112/112/112 113/113/113
f 113/113/113 113/113/113 114/114/114
f 113/113/113 115/115/115 114/114/114
f 114/114/114 115/115/115 116/116/116
f 116/116/116 116/116/116 117/117/117
f 117/117/117 117/117/117 118/118/118
f 117/117/117 119/119/119 118/118/118
f 118/118/118 119/119/119 120/120/120
f 120/120/120 120/120/120 121/121/121
f 121/121/121 121/121/121 122/122/122
f 121/121/121 123/123/123 122/122/122
f 122/122/122 123/123/123 124/124/124

#
# MESH 001
#
g surface_001
usemtl surface_001
f 125 126 127
f 126 128 127
f 127 128 129
f 128 130 129
f 129 130 127
f 127 130 125
f 125 130 126
f 130 128 126

