#
# OBJECT NAME
#
o model_007
mtllib 007.mtl

#
# VERTEX BUFFER 000
#
v 78.8143 32.4868 -3.4212
v 78.814 30.0003 -0.934733
v 78.8145 30.0003 -5.90767
v 78.8143 27.5138 -3.4212
v 78.8143 27.5138 -3.4212
v 107.016 27.8628 -3.41812
v 78.814 30.0003 -0.934733
v 107.015 30.0003 -1.28066
v 107.016 32.1378 -3.41812
v 78.8143 32.4868 -3.4212
v 107.016 30.0003 -5.55559
v 78.8145 30.0003 -5.90767
v 128.433 26.8739 -3.41578
v 128.432 30.0003 -0.2894
v 128.433 30.0003 -6.54217
v 128.433 33.1267 -3.41578
v 78.8145 30.0003 -5.90767
v 78.8143 27.5138 -3.4212
v 107.016 30.0003 -5.55559
v 107.016 27.8628 -3.41812
v 128.433 26.8739 -3.41578
v 128.433 30.0003 -6.54217
v 117.985 25.456 -3.41692
v 117.986 30.0003 -7.96121
v 107.016 30.0003 -5.55559
v 107.016 27.8628 -3.41812
v 115.32 30.0003 -6.15251
v 115.319 27.265 -3.41721
v 117.985 25.456 -3.41692
v 117.986 30.0003 -7.96121
v 115.319 27.265 -3.41721
v 115.32 30.0003 -6.15251
v 117.985 25.456 -3.41692
v 115.319 27.265 -3.41721
v 117.985 30.0003 1.12736
v 115.319 30.0003 -0.681918
v 115.319 32.7356 -3.41722
v 117.985 34.5446 -3.41692
v 115.32 30.0003 -6.15251
v 117.986 30.0003 -7.96121
v 117.985 25.456 -3.41692
v 128.433 26.8739 -3.41578
v 117.985 30.0003 1.12736
v 128.432 30.0003 -0.2894
v 117.985 34.5446 -3.41692
v 128.433 33.1267 -3.41578
v 117.986 30.0003 -7.96121
v 128.433 30.0003 -6.54217
v 115.32 30.0003 -6.15251
v 107.016 30.0003 -5.55559
v 115.319 32.7356 -3.41722
v 107.016 32.1378 -3.41812
v 115.319 30.0003 -0.681918
v 107.015 30.0003 -1.28066
v 115.319 27.265 -3.41721
v 107.016 27.8628 -3.41812

vn -1 0 -0.000109239
vn -1 0 -0.000109239
vn -1 0 -0.000109239
vn -1 0 -0.000109239
vn 0.0123744 -0.999923 1.45085e-006
vn 0.0123744 -0.999923 1.45085e-006
vn 0.0122652 0 0.999925
vn 0.0122652 0 0.999925
vn 0.0123744 0.999923 1.25267e-006
vn 0.0123744 0.999923 1.25267e-006
vn 0.0124836 0 -0.999922
vn 0.0124836 0 -0.999922
vn 1 0 0.000109239
vn 1 0 0.000109239
vn 1 0 0.000109239
vn 1 0 0.000109239
vn 0.0124836 0 -0.999922
vn 0.0123744 -0.999923 1.45085e-006
vn 0.0124836 0 -0.999922
vn 0.0123744 -0.999923 1.45085e-006
vn 0.134485 -0.990916 1.47892e-005
vn 0.134593 0 -0.990901
vn 0.134485 -0.990916 1.47892e-005
vn 0.134593 0 -0.990901
vn -0.0717018 0 -0.997426
vn -0.0718108 -0.997418 -7.74568e-006
vn -0.0717018 0 -0.997426
vn -0.0718108 -0.997418 -7.74568e-006
vn -0.561477 -0.827492 -6.12531e-005
vn -0.561387 0 -0.827554
vn -0.561477 -0.827492 -6.12531e-005
vn -0.561387 0 -0.827554
vn -0.561477 -0.827492 -6.12531e-005
vn -0.561477 -0.827492 -6.12531e-005
vn -0.561568 0 0.827431
vn -0.561568 0 0.827431
vn -0.561477 0.827492 -6.14171e-005
vn -0.561477 0.827492 -6.14171e-005
vn -0.561387 0 -0.827554
vn -0.561387 0 -0.827554
vn 0.134485 -0.990916 1.47892e-005
vn 0.134485 -0.990916 1.47892e-005
vn 0.134377 0 0.99093
vn 0.134377 0 0.99093
vn 0.134485 0.990916 1.45928e-005
vn 0.134485 0.990916 1.45928e-005
vn 0.134593 0 -0.990901
vn 0.134593 0 -0.990901
vn -0.0717018 0 -0.997426
vn -0.0717018 0 -0.997426
vn -0.0718108 0.997418 -7.94336e-006
vn -0.0718108 0.997418 -7.94336e-006
vn -0.0719198 0 0.99741
vn -0.0719198 0 0.99741
vn -0.0718108 -0.997418 -7.74568e-006
vn -0.0718108 -0.997418 -7.74568e-006

vt 0.680057 0.164509
vt 0.828944 0.313396
vt 0.828944 0.0156214
vt 0.977832 0.164509
vt 0.39461 0.0135921
vt 0.39461 0.98913
vt 0.274399 0.0135921
vt 0.274399 0.98913
vt 0.154187 0.98913
vt 0.154187 0.0135921
vt 0.0339759 0.98913
vt 0.0339759 0.0135921
vt 0.726471 0.342221
vt 0.621856 0.446836
vt 0.621856 0.237605
vt 0.51724 0.342221
vt 0.0339759 0.0135921
vt 0.39461 0.0135921
vt 0.0339759 0.98913
vt 0.39461 0.98913
vt 0.894499 0.987565
vt 0.533976 0.987565
vt 0.894499 0.76518
vt 0.533976 0.76518
vt 0.533976 0.469485
vt 0.894499 0.469485
vt 0.533976 0.680087
vt 0.894499 0.680087
vt 0.894499 0.76518
vt 0.533976 0.76518
vt 0.894499 0.680087
vt 0.533976 0.680087
vt 0.894499 0.76518
vt 0.894499 0.680087
vt 0.774325 0.76518
vt 0.774325 0.680087
vt 0.65415 0.680087
vt 0.65415 0.76518
vt 0.533976 0.680087
vt 0.533976 0.76518
vt 0.894499 0.76518
vt 0.894499 0.987565
vt 0.774325 0.76518
vt 0.774325 0.987565
vt 0.65415 0.76518
vt 0.65415 0.987565
vt 0.533976 0.76518
vt 0.533976 0.987565
vt 0.533976 0.680087
vt 0.533976 0.469485
vt 0.65415 0.680087
vt 0.65415 0.469485
vt 0.774325 0.680087
vt 0.774325 0.469485
vt 0.894499 0.680087
vt 0.894499 0.469485


#
# VERTEX BUFFER 001
#
v 78.875 30 -0.93457
v 78.875 27.5 -3.41992
v 78.875 32.4688 -3.41992
v 78.875 30 -5.90625
v 128.375 34.125 -3.41406
v 128.375 30 -7.55859
v 117.938 30 -7.96094
v 117.938 25.4531 -3.41602
v 128.375 25.8438 -3.41406
v 117.938 30 1.12695
v 128.375 30 0.727051
v 117.938 34.5313 -3.41602
v 128.375 30 -7.55859
v 128.375 25.8438 -3.41406
v 128.375 34.125 -3.41406
v 128.375 30 0.727051
v 117.938 30 1.12695
v 108.75 30 -3.41602
v 117.938 34.5313 -3.41602
v 117.938 30 -7.96094
v 117.938 25.4531 -3.41602
v 78.875 27.5 -3.41992
v 115.25 27.2969 -3.41602
v 78.875 30 -5.90625
v 115.25 30 -6.10547
v 78.875 32.4688 -3.41992
v 115.25 32.6875 -3.41602
v 78.875 30 -0.93457
v 115.25 30 -0.728027


#
# VERTEX BUFFER 002
#
v 78.875 30 -0.93457
v 78.875 27.5 -3.41992
v 78.875 32.4688 -3.41992
v 78.875 30 -5.90625
v 117.938 30 -7.96094
v 115.25 30 -6.10547
v 117.938 34.5313 -3.41602
v 115.25 32.6875 -3.41602
v 117.938 30 1.12695
v 115.25 30 -0.728027
v 117.938 25.4531 -3.41602
v 115.25 27.2969 -3.41602
v 78.875 30 -5.90625
v 115.25 30 -6.10547
v 78.875 32.4688 -3.41992
v 115.25 32.6875 -3.41602
v 78.875 30 -0.93457
v 115.25 30 -0.728027
v 78.875 27.5 -3.41992
v 115.25 27.2969 -3.41602
v 128.375 30 -7.55859
v 128.375 34.125 -3.41406
v 117.938 30 -7.96094
v 117.938 34.5313 -3.41602
v 128.375 30 0.727051
v 117.938 30 1.12695
v 128.375 25.8438 -3.41406
v 117.938 25.4531 -3.41602
v 115.25 30 -6.10547
v 115.25 27.2969 -3.41602
v 117.938 30 -7.96094
v 117.938 25.4531 -3.41602
v 128.375 30 -7.55859
v 128.375 25.8438 -3.41406
v 128.375 34.125 -3.41406
v 128.375 30 0.727051
v 128.375 25.8438 -3.41406
v 128.375 30 -7.55859
v 117.938 25.4531 -3.41602
v 117.938 30 -7.96094
v 78.875 27.5 -3.41992
v 115.25 27.2969 -3.41602
v 78.875 30 -5.90625
v 115.25 30 -6.10547

vn -1 0 -0.000109196
vn -1 0 -0.000109196
vn -1 0 -0.000109196
vn -1 0 -0.000109196
vn -0.565918 0 -0.82373
vn -0.565918 0 -0.82373
vn -0.566406 0.82373 -6.19292e-005
vn -0.566406 0.82373 -6.19292e-005
vn -0.566406 0 0.82373
vn -0.566406 0 0.82373
vn -0.566406 -0.82373 -6.17504e-005
vn -0.566406 -0.82373 -6.17504e-005
vn -0.00545883 0 -0.999512
vn -0.00545883 0 -0.999512
vn -0.00556564 0.999512 -6.55651e-007
vn -0.00556564 0.999512 -6.55651e-007
vn -0.00567627 0 0.999512
vn -0.00567627 0 0.999512
vn -0.00556564 -0.999512 -4.76837e-007
vn -0.00556564 -0.999512 -4.76837e-007
vn 0.0384827 0 -0.999023
vn 0.0383911 0.999023 4.05312e-006
vn 0.0384827 0 -0.999023
vn 0.0383911 0.999023 4.05312e-006
vn 0.038269 0 0.999023
vn 0.038269 0 0.999023
vn 0.0383911 -0.999023 4.29153e-006
vn 0.0383911 -0.999023 4.29153e-006
vn -0.565918 0 -0.82373
vn -0.566406 -0.82373 -6.17504e-005
vn -0.565918 0 -0.82373
vn -0.566406 -0.82373 -6.17504e-005
vn 1 0 0.000109196
vn 1 0 0.000109196
vn 1 0 0.000109196
vn 1 0 0.000109196
vn 0.0383911 -0.999023 4.29153e-006
vn 0.0384827 0 -0.999023
vn 0.0383911 -0.999023 4.29153e-006
vn 0.0384827 0 -0.999023
vn -0.00556564 -0.999512 -4.76837e-007
vn -0.00556564 -0.999512 -4.76837e-007
vn -0.00545883 0 -0.999512
vn -0.00545883 0 -0.999512

vt 0.828613 0.313477
vt 0.977539 0.164551
vt 0.679688 0.164551
vt 0.828613 0.015625
vt 0.533691 0.765259
vt 0.533691 0.469727
vt 0.653809 0.765259
vt 0.653809 0.469727
vt 0.773926 0.765259
vt 0.773926 0.469727
vt 0.894043 0.765259
vt 0.894043 0.469727
vt 0.0339661 0.0136719
vt 0.0339661 0.989136
vt 0.154175 0.0136719
vt 0.154175 0.989136
vt 0.27417 0.0136719
vt 0.27417 0.989136
vt 0.394531 0.0136719
vt 0.394531 0.989136
vt 0.533691 0.987572
vt 0.653809 0.987572
vt 0.533691 0.765259
vt 0.653809 0.765259
vt 0.773926 0.987572
vt 0.773926 0.765259
vt 0.894043 0.987572
vt 0.894043 0.765259
vt 0.533691 0.469727
vt 0.894043 0.469727
vt 0.533691 0.765259
vt 0.894043 0.765259
vt 0.621582 0.237793
vt 0.726074 0.342285
vt 0.51709 0.342285
vt 0.621582 0.447266
vt 0.894043 0.987572
vt 0.533691 0.987572
vt 0.894043 0.765259
vt 0.533691 0.765259
vt 0.394531 0.0136719
vt 0.394531 0.989136
vt 0.0339661 0.0136719
vt 0.0339661 0.989136


#
# MESH 000
#
g surface_000
usemtl surface_000
f 1/1/1 3/3/3 2/2/2
f 2/2/2 3/3/3 4/4/4
f 4/4/4 4/4/4 5/5/5
f 5/5/5 6/6/6 5/5/5
f 5/5/5 6/6/6 7/7/7
f 6/6/6 8/8/8 7/7/7
f 8/8/8 9/9/9 7/7/7
f 7/7/7 9/9/9 10/10/10
f 9/9/9 11/11/11 10/10/10
f 10/10/10 11/11/11 12/12/12
f 12/12/12 12/12/12 13/13/13
f 13/13/13 13/13/13 14/14/14
f 13/13/13 15/15/15 14/14/14
f 14/14/14 15/15/15 16/16/16
f 16/16/16 16/16/16 17/17/17
f 17/17/17 17/17/17 18/18/18
f 17/17/17 19/19/19 18/18/18
f 18/18/18 19/19/19 20/20/20
f 20/20/20 20/20/20 21/21/21
f 21/21/21 21/21/21 22/22/22
f 21/21/21 23/23/23 22/22/22
f 22/22/22 23/23/23 24/24/24
f 24/24/24 24/24/24 25/25/25
f 25/25/25 25/25/25 26/26/26
f 25/25/25 27/27/27 26/26/26
f 26/26/26 27/27/27 28/28/28
f 28/28/28 28/28/28 29/29/29
f 29/29/29 29/29/29 30/30/30
f 29/29/29 31/31/31 30/30/30
f 30/30/30 31/31/31 32/32/32
f 32/32/32 32/32/32 33/33/33
f 33/33/33 33/33/33 34/34/34
f 33/33/33 35/35/35 34/34/34
f 34/34/34 35/35/35 36/36/36
f 36/36/36 35/35/35 37/37/37
f 35/35/35 38/38/38 37/37/37
f 37/37/37 38/38/38 39/39/39
f 38/38/38 40/40/40 39/39/39
f 40/40/40 41/41/41 40/40/40
f 41/41/41 42/42/42 41/41/41
f 41/41/41 42/42/42 43/43/43
f 42/42/42 44/44/44 43/43/43
f 43/43/43 44/44/44 45/45/45
f 44/44/44 46/46/46 45/45/45
f 45/45/45 46/46/46 47/47/47
f 46/46/46 48/48/48 47/47/47
f 48/48/48 49/49/49 48/48/48
f 49/49/49 50/50/50 49/49/49
f 49/49/49 50/50/50 51/51/51
f 50/50/50 52/52/52 51/51/51
f 51/51/51 52/52/52 53/53/53
f 52/52/52 54/54/54 53/53/53
f 53/53/53 54/54/54 55/55/55
f 54/54/54 56/56/56 55/55/55

#
# MESH 001
#
g surface_001
usemtl surface_001
f 57 59 58
f 58 59 60
f 60 60 61
f 61 62 61
f 61 62 63
f 63 62 64
f 62 65 64
f 64 65 66
f 65 67 66
f 66 67 68
f 67 61 68
f 68 61 63
f 63 63 69
f 69 69 70
f 69 71 70
f 70 71 72
f 72 72 73
f 73 73 74
f 73 75 74
f 75 76 74
f 76 77 74
f 74 77 73
f 73 73 78
f 78 78 79
f 78 80 79
f 79 80 81
f 80 82 81
f 81 82 83
f 82 84 83
f 83 84 85
f 84 78 85
f 85 78 79

#
# MESH 002
#
g surface_002
usemtl surface_002
f 86/57/57 88/59/59 87/58/58
f 87/58/58 88/59/59 89/60/60
f 89/60/60 89/60/60 90/61/61
f 90/61/61 91/62/62 90/61/61
f 90/61/61 91/62/62 92/63/63
f 91/62/62 93/64/64 92/63/63
f 92/63/63 93/64/64 94/65/65
f 93/64/64 95/66/66 94/65/65
f 94/65/65 95/66/66 96/67/67
f 95/66/66 97/68/68 96/67/67
f 97/68/68 98/69/69 97/68/68
f 98/69/69 98/69/69 99/70/70
f 98/69/69 100/71/71 99/70/70
f 99/70/70 100/71/71 101/72/72
f 100/71/71 102/73/73 101/72/72
f 101/72/72 102/73/73 103/74/74
f 102/73/73 104/75/75 103/74/74
f 103/74/74 104/75/75 105/76/76
f 105/76/76 105/76/76 106/77/77
f 106/77/77 106/77/77 107/78/78
f 106/77/77 108/79/79 107/78/78
f 108/79/79 109/80/80 107/78/78
f 107/78/78 109/80/80 110/81/81
f 109/80/80 111/82/82 110/81/81
f 110/81/81 111/82/82 112/83/83
f 111/82/82 113/84/84 112/83/83
f 113/84/84 114/85/85 113/84/84
f 114/85/85 114/85/85 115/86/86
f 114/85/85 116/87/87 115/86/86
f 115/86/86 116/87/87 117/88/88
f 117/88/88 117/88/88 118/89/89
f 118/89/89 118/89/89 119/90/90
f 118/89/89 120/91/91 119/90/90
f 119/90/90 120/91/91 121/92/92
f 121/92/92 121/92/92 122/93/93
f 122/93/93 122/93/93 123/94/94
f 122/93/93 124/95/95 123/94/94
f 123/94/94 124/95/95 125/96/96
f 125/96/96 125/96/96 126/97/97
f 126/97/97 126/97/97 127/98/98
f 126/97/97 128/99/99 127/98/98
f 127/98/98 128/99/99 129/100/100

